<?xml version="1.0" encoding="UTF-8" standalone="no"?>
<!-- Created with Inkscape (http://www.inkscape.org/) -->

<svg
   version="1.1"
   id="svg1"
   width="197.08"
   height="240.21333"
   viewBox="0 0 197.08 240.21333"
   sodipodi:docname="UCEAP Vertical Logo Dark Teal.eps"
   xmlns:inkscape="http://www.inkscape.org/namespaces/inkscape"
   xmlns:sodipodi="http://sodipodi.sourceforge.net/DTD/sodipodi-0.dtd"
   xmlns="http://www.w3.org/2000/svg"
   xmlns:svg="http://www.w3.org/2000/svg">
  <defs
     id="defs1" />
  <sodipodi:namedview
     id="namedview1"
     pagecolor="#ffffff"
     bordercolor="#000000"
     borderopacity="0.25"
     inkscape:showpageshadow="2"
     inkscape:pageopacity="0.0"
     inkscape:pagecheckerboard="0"
     inkscape:deskcolor="#d1d1d1">
    <inkscape:page
       x="0"
       y="0"
       inkscape:label="1"
       id="page1"
       width="197.08"
       height="240.21333"
       margin="0"
       bleed="0" />
  </sodipodi:namedview>
  <g
     id="g1"
     inkscape:groupmode="layer"
     inkscape:label="1">
    <g
       id="group-R5">
      <path
         id="path2"
         d="M 642.613,1794.58 H 826.16 V 1747.3 H 698.953 v -89.5 h 112.121 v -45.22 H 698.953 V 1506.96 H 829.68 v -47.25 H 642.613 v 334.87"
         style="fill:#0088a7;fill-opacity:1;fill-rule:nonzero;stroke:none"
         transform="matrix(0.13333333,0,0,-0.13333333,0,240.21333)" />
      <path
         id="path3"
         d="m 1088.86,1577.87 -34.67,95.55 c -10.06,28.13 -15.09,46.24 -19.11,57.81 h -1.02 c -3.51,-12.08 -9.05,-31.68 -18.59,-57.81 l -35.22,-95.55 z m -79.95,216.71 h 54.84 l 130.19,-334.87 h -61.85 l -26.11,71.9 H 963.66 l -25.617,-71.9 h -56.844 l 127.711,334.87"
         style="fill:#0088a7;fill-opacity:1;fill-rule:nonzero;stroke:none"
         transform="matrix(0.13333333,0,0,-0.13333333,0,240.21333)" />
      <path
         id="path4"
         d="m 1337.55,1630.66 c 50.78,-0.01 72.38,20.64 72.38,60.85 0,36.19 -20.11,58.32 -70.86,58.32 h -36.72 v -119.17 z m -92.01,163.92 h 98.06 c 70.38,0 123.65,-33.21 123.65,-101.56 0,-69.9 -49.24,-107.11 -130.21,-107.11 h -34.69 v -126.2 h -56.81 v 334.87"
         style="fill:#0088a7;fill-opacity:1;fill-rule:nonzero;stroke:none"
         transform="matrix(0.13333333,0,0,-0.13333333,0,240.21333)" />
      <path
         id="path5"
         d="m 12.1836,1583.93 v 209.68 h 39.2031 v -204.65 c 0,-69.4 28.6172,-102.58 91.5043,-102.58 60.332,0 88.988,39.23 88.988,95.53 v 211.7 h 36.719 v -207.68 c 0,-81.97 -39.684,-133.23 -126.723,-133.23 -91.4805,0 -129.6914,52.78 -129.6914,131.23"
         style="fill:#0088a7;fill-opacity:1;fill-rule:nonzero;stroke:none"
         transform="matrix(0.13333333,0,0,-0.13333333,0,240.21333)" />
      <path
         id="path6"
         d="m 321.508,1629.13 c 0,90.52 60.832,172.46 163.879,172.46 42.754,0 69.41,-9.54 94.031,-25.14 l -19.613,-29.66 c -19.614,13.57 -43.735,22.11 -75.41,22.11 -80.485,0 -121.7,-66.36 -121.7,-138.77 0,-73.41 39.746,-142.29 123.207,-142.29 36.231,0 62.34,12.06 81.953,28.66 l 18.125,-28.15 c -17.605,-16.08 -54.316,-33.69 -101.097,-33.69 -104.547,0 -163.375,83.96 -163.375,174.47"
         style="fill:#0088a7;fill-opacity:1;fill-rule:nonzero;stroke:none"
         transform="matrix(0.13333333,0,0,-0.13333333,0,240.21333)" />
      <path
         id="path7"
         d="M 17.1289,774.359 H 113.754 V 745.172 H 52.0938 v -37.75 H 106.453 V 679.738 H 52.0938 v -43.777 h 63.4022 v -29.18 H 17.1289 v 167.578"
         style="fill:#0088a7;fill-opacity:1;fill-rule:nonzero;stroke:none"
         transform="matrix(0.13333333,0,0,-0.13333333,0,240.21333)" />
      <path
         id="path8"
         d="m 215.922,635.211 c 37.746,0 56.894,19.367 56.894,56.609 0,37.489 -18.367,54.11 -58.148,54.11 H 199.316 V 635.211 Z m -52.07,139.148 h 50.578 c 65.922,0 95.875,-33.211 95.875,-81.531 0,-48.316 -30.461,-86.047 -97.137,-86.047 h -49.316 v 167.578"
         style="fill:#0088a7;fill-opacity:1;fill-rule:nonzero;stroke:none"
         transform="matrix(0.13333333,0,0,-0.13333333,0,240.21333)" />
      <path
         id="path9"
         d="m 348.48,671.691 v 102.668 h 35.485 v -99.648 c 0,-28.68 10.308,-41.77 36.75,-41.77 24.898,0 35.207,15.098 35.207,39.508 v 101.91 h 32.73 v -99.398 c 0,-45.789 -22.906,-71.211 -68.687,-71.211 -48.586,0 -71.485,24.16 -71.485,67.941"
         style="fill:#0088a7;fill-opacity:1;fill-rule:nonzero;stroke:none"
         transform="matrix(0.13333333,0,0,-0.13333333,0,240.21333)" />
      <path
         id="path10"
         d="m 528.086,690.82 c 0,45.539 29.961,86.571 86.566,86.571 21.907,0 37.258,-4.789 50.364,-13.34 l -15.86,-25.922 c -9.316,6.031 -19.625,9.82 -35.015,9.82 -31.453,0 -48.305,-25.168 -48.305,-56.129 0,-31.961 16.102,-58.371 48.816,-58.371 18.161,0 29.203,6.281 38.008,12.832 l 14.602,-24.922 c -8.555,-7.8 -28.688,-17.609 -53.121,-17.609 -57.114,0 -86.055,41.531 -86.055,87.07"
         style="fill:#0088a7;fill-opacity:1;fill-rule:nonzero;stroke:none"
         transform="matrix(0.13333333,0,0,-0.13333333,0,240.21333)" />
      <path
         id="path11"
         d="m 791.543,666.66 -14.371,40.02 c -5.281,14.332 -7.531,25.16 -9.031,28.929 h -0.512 c -1.274,-4.031 -4.024,-15.347 -8.805,-28.929 l -14.367,-40.02 z m -39.785,107.699 h 34.226 l 65.68,-167.578 h -38.766 l -11.289,31.449 h -66.945 l -11.09,-31.449 h -35.738 l 63.922,167.578"
         style="fill:#0088a7;fill-opacity:1;fill-rule:nonzero;stroke:none"
         transform="matrix(0.13333333,0,0,-0.13333333,0,240.21333)" />
      <path
         id="path12"
         d="m 903.695,745.172 h -46.297 v 29.187 H 985.52 V 745.172 H 939.465 V 606.781 h -35.77 v 138.391"
         style="fill:#0088a7;fill-opacity:1;fill-rule:nonzero;stroke:none"
         transform="matrix(0.13333333,0,0,-0.13333333,0,240.21333)" />
      <path
         id="path13"
         d="m 1026.45,774.359 h 35.48 V 606.781 h -35.48 v 167.578"
         style="fill:#0088a7;fill-opacity:1;fill-rule:nonzero;stroke:none"
         transform="matrix(0.13333333,0,0,-0.13333333,0,240.21333)" />
      <path
         id="path14"
         d="m 1241.86,690.32 c 0,31.2 -14.61,58.371 -48.11,58.371 -33.72,0 -49.56,-26.171 -49.56,-57.371 0,-31.461 15.34,-58.879 48.79,-58.879 33.75,0 48.88,26.668 48.88,57.879 z m -135.43,0 c 0,45.551 30.47,87.071 86.55,87.071 56.15,0 86.34,-41.032 86.34,-86.071 0,-45.55 -29.42,-87.57 -85.57,-87.57 -56.09,0 -87.32,41.27 -87.32,86.57"
         style="fill:#0088a7;fill-opacity:1;fill-rule:nonzero;stroke:none"
         transform="matrix(0.13333333,0,0,-0.13333333,0,240.21333)" />
      <path
         id="path15"
         d="m 1325.79,774.359 h 35.75 l 60.39,-86.808 c 10.07,-14.352 16.1,-25.422 17.6,-28.18 h 0.53 c -0.28,2.258 -1.04,13.578 -1.04,26.41 v 88.578 h 32.23 V 606.781 h -32.47 l -65.15,93.098 c -9.09,12.582 -14.1,21.902 -16.12,25.16 H 1357 c 0.24,-2.258 0.99,-11.828 0.99,-22.391 v -95.867 h -32.2 v 167.578"
         style="fill:#0088a7;fill-opacity:1;fill-rule:nonzero;stroke:none"
         transform="matrix(0.13333333,0,0,-0.13333333,0,240.21333)" />
      <path
         id="path16"
         d="m 103.691,364.789 -14.3707,40 c -5.2851,14.352 -7.5312,25.16 -9.0312,28.949 h -0.5196 c -1.2617,-4.027 -4.0156,-15.347 -8.7968,-28.949 l -14.3594,-40 z M 63.9023,472.488 h 34.2266 l 65.7231,-167.59 h -38.801 l -11.297,31.454 H 46.8125 L 35.7227,304.898 H 0 l 63.9023,167.59"
         style="fill:#0088a7;fill-opacity:1;fill-rule:nonzero;stroke:none"
         transform="matrix(0.13333333,0,0,-0.13333333,0,240.21333)" />
      <path
         id="path17"
         d="m 251.852,332.07 c 20.394,0 31.211,6.289 31.211,22.399 0,15.609 -9.079,23.66 -29.711,23.66 H 233.219 V 332.07 Z m -2.262,71.469 c 19.109,0 27.437,6.801 27.437,21.641 0,13.84 -9.078,20.129 -26.683,20.129 h -17.125 v -41.77 z m -51.348,68.949 h 55.891 c 30.93,0 57.859,-10.066 57.859,-41.769 0,-21.649 -11.578,-33.719 -29.683,-38.5 v -0.508 c 19.847,-3.02 36.711,-16.352 36.711,-40.27 0,-34.222 -27.434,-46.543 -65.668,-46.543 h -55.11 v 167.59"
         style="fill:#0088a7;fill-opacity:1;fill-rule:nonzero;stroke:none"
         transform="matrix(0.13333333,0,0,-0.13333333,0,240.21333)" />
      <path
         id="path18"
         d="m 414.586,399.012 c 18.871,0 27.703,8.558 27.703,23.148 0,15.352 -8.832,23.149 -29.203,23.149 h -17.875 v -46.297 z m -54.828,73.476 h 55.855 c 39.231,0 61.899,-16.847 61.899,-48.316 0,-27.434 -18.633,-41.262 -39.012,-45.043 v -0.5 c 4.547,-3.27 10.582,-9.82 19.625,-23.91 l 32.73,-49.821 h -39.007 l -30.703,47.813 c -13.075,19.379 -15.868,21.141 -23.657,21.141 h -2.277 v -68.954 h -35.453 v 167.59"
         style="fill:#0088a7;fill-opacity:1;fill-rule:nonzero;stroke:none"
         transform="matrix(0.13333333,0,0,-0.13333333,0,240.21333)" />
      <path
         id="path19"
         d="m 647.328,388.441 c 0,31.207 -14.57,58.379 -48.082,58.379 -33.711,0 -49.578,-26.172 -49.578,-57.371 0,-31.449 15.352,-58.89 48.832,-58.89 33.742,0 48.828,26.679 48.828,57.882 z m -135.39,0 c 0,45.547 30.441,87.071 86.562,87.071 56.129,0 86.328,-41.024 86.328,-86.063 0,-45.551 -29.445,-87.57 -85.582,-87.57 -56.086,0 -87.308,41.269 -87.308,86.562"
         style="fill:#0088a7;fill-opacity:1;fill-rule:nonzero;stroke:none"
         transform="matrix(0.13333333,0,0,-0.13333333,0,240.21333)" />
      <path
         id="path20"
         d="m 808.074,364.789 -14.324,40 c -5.297,14.352 -7.578,25.16 -9.086,28.949 h -0.504 c -1.226,-4.027 -4.031,-15.347 -8.812,-28.949 l -14.317,-40 z M 768.32,472.488 h 34.231 l 65.676,-167.59 h -38.762 l -11.32,31.454 h -66.95 l -11.047,-31.454 h -35.722 l 63.894,167.59"
         style="fill:#0088a7;fill-opacity:1;fill-rule:nonzero;stroke:none"
         transform="matrix(0.13333333,0,0,-0.13333333,0,240.21333)" />
      <path
         id="path21"
         d="m 954.727,333.328 c 37.773,0 56.883,19.383 56.883,56.621 0,37.5 -18.364,54.102 -58.118,54.102 H 938.141 V 333.328 Z m -52.098,139.16 h 50.598 c 65.923,0 95.883,-33.218 95.883,-81.527 0,-48.32 -30.44,-86.063 -97.145,-86.063 h -49.336 v 167.59"
         style="fill:#0088a7;fill-opacity:1;fill-rule:nonzero;stroke:none"
         transform="matrix(0.13333333,0,0,-0.13333333,0,240.21333)" />
      <path
         id="path22"
         d="m 68.207,89.5781 c 22.3907,0 31.93,9.0625 31.93,27.6839 0,16.847 -9.305,26.168 -31.18,26.168 H 52.3398 V 89.5781 Z M 16.6172,170.609 h 55.1016 c 36.4802,0 64.1832,-16.859 64.1832,-52.847 0,-36.4807 -26.449,-55.1136 -68.2106,-55.1136 H 52.3398 V 3.01953 H 16.6172 V 170.609"
         style="fill:#0088a7;fill-opacity:1;fill-rule:nonzero;stroke:none"
         transform="matrix(0.13333333,0,0,-0.13333333,0,240.21333)" />
      <path
         id="path23"
         d="m 230.727,97.1289 c 18.863,0 27.668,8.5621 27.668,23.1521 0,15.348 -8.805,23.149 -29.165,23.149 H 211.344 V 97.1289 Z m -54.868,73.4801 h 55.86 c 39.273,0 61.914,-16.859 61.914,-48.32 0,-27.4296 -18.621,-41.2695 -39.028,-45.039 v -0.5117 c 4.536,-3.2695 10.571,-9.8086 19.653,-23.8985 L 306.938,3.01953 H 267.949 L 237.27,50.8203 c -13.106,19.3906 -15.86,21.1485 -23.676,21.1485 h -2.25 V 3.01953 H 175.859 V 170.609"
         style="fill:#0088a7;fill-opacity:1;fill-rule:nonzero;stroke:none"
         transform="matrix(0.13333333,0,0,-0.13333333,0,240.21333)" />
      <path
         id="path24"
         d="m 463.414,86.5586 c 0,31.2034 -14.562,58.3824 -48.043,58.3824 -33.738,0 -49.578,-26.171 -49.578,-57.3707 0,-31.4492 15.352,-58.8906 48.832,-58.8906 33.711,0 48.789,26.6797 48.789,57.8789 z m -135.351,0 c 0,45.5434 30.437,87.0704 86.562,87.0704 56.098,0 86.297,-41.02 86.297,-86.0587 C 500.922,42.0195 471.477,0 415.371,0 359.254,0 328.063,41.2695 328.063,86.5586"
         style="fill:#0088a7;fill-opacity:1;fill-rule:nonzero;stroke:none"
         transform="matrix(0.13333333,0,0,-0.13333333,0,240.21333)" />
      <path
         id="path25"
         d="m 532.578,87.0586 c 0,45.5504 33.195,86.5704 91.34,86.5704 25.184,0 42.043,-5.539 55.105,-15.109 l -15.835,-26.418 c -10.333,7.558 -22.657,12.078 -40.02,12.078 -35.758,0 -52.852,-24.16 -52.852,-56.1097 0,-32.2109 15.352,-59.1289 50.563,-59.1289 13.617,0 23.922,2.7578 29.723,6.5274 v 33.2226 h -30.977 v 27.4297 h 64.961 V 16.1016 C 672.75,8.03906 653.363,0 621.16,0 563.52,0 532.578,41.7695 532.578,87.0586"
         style="fill:#0088a7;fill-opacity:1;fill-rule:nonzero;stroke:none"
         transform="matrix(0.13333333,0,0,-0.13333333,0,240.21333)" />
      <path
         id="path26"
         d="m 786.172,97.1289 c 18.867,0 27.707,8.5621 27.707,23.1521 0,15.348 -8.84,23.149 -29.215,23.149 H 766.793 V 97.1289 Z m -54.832,73.4801 55.855,-0.007 c 39.243,0 61.891,-16.852 61.891,-48.313 0,-27.4296 -18.633,-41.2695 -38.992,-45.039 v -0.5117 c 4.535,-3.2695 10.582,-9.8086 19.613,-23.8985 L 862.438,3.01953 H 823.43 L 792.727,50.8203 c -13.063,19.3906 -15.872,21.1485 -23.645,21.1485 h -2.289 V 3.01953 H 731.34 V 170.609"
         style="fill:#0088a7;fill-opacity:1;fill-rule:nonzero;stroke:none"
         transform="matrix(0.13333333,0,0,-0.13333333,0,240.21333)" />
      <path
         id="path27"
         d="M 983.93,62.9102 969.605,102.91 c -5.289,14.352 -7.574,25.16 -9.074,28.942 h -0.515 c -1.227,-4.032 -4.036,-15.34 -8.801,-28.942 L 936.887,62.9102 Z M 944.184,170.602 h 34.218 L 1044.08,3.01953 h -38.75 L 994,34.4688 H 927.063 L 916.008,3.01953 h -35.77 L 944.184,170.602"
         style="fill:#0088a7;fill-opacity:1;fill-rule:nonzero;stroke:none"
         transform="matrix(0.13333333,0,0,-0.13333333,0,240.21333)" />
      <path
         id="path28"
         d="m 1091.07,170.602 h 34.47 l 33.74,-103.4106 c 4.04,-12.082 7.03,-24.1601 8.53,-28.9531 h 0.51 c 1.27,4.543 4.78,16.8711 8.8,28.9531 l 34.78,103.4106 h 34.21 L 1269.26,3.01953 H 1233 l -10.81,86.55857 c -1.5,12.3199 -2.51,21.1409 -2.76,24.4019 h -0.5 c -0.75,-3.769 -3.29,-12.832 -6.81,-23.9019 L 1183.68,3.01953 h -34.97 l -28.44,86.80857 c -3.26,10.5699 -5.79,20.6409 -6.82,24.1519 h -0.47 c -0.28,-3.769 -1.03,-13.582 -2.28,-24.6519 L 1099.88,3.01953 h -31.94 l 23.13,167.58247"
         style="fill:#0088a7;fill-opacity:1;fill-rule:nonzero;stroke:none"
         transform="matrix(0.13333333,0,0,-0.13333333,0,240.21333)" />
      <path
         id="path29"
         d="m 16.1875,1176.85 v 65.31 h 22.5664 v -63.39 c 0,-18.25 6.5625,-26.57 23.3711,-26.57 15.8438,0 22.4063,9.6 22.4063,25.13 v 64.83 h 20.8127 v -63.23 c 0,-29.13 -14.5667,-45.29 -43.6995,-45.29 -30.8906,0 -45.457,15.36 -45.457,43.21"
         style="fill:#0088a7;fill-opacity:1;fill-rule:nonzero;stroke:none"
         transform="matrix(0.13333333,0,0,-0.13333333,0,240.21333)" />
      <path
         id="path30"
         d="m 151.305,1242.16 h 22.726 l 38.414,-55.22 c 6.407,-9.13 10.246,-16.17 11.207,-17.93 h 0.325 c -0.164,1.44 -0.641,8.64 -0.641,16.8 v 56.35 h 20.488 v -106.61 h -20.648 l -41.461,59.23 c -5.762,8 -8.961,13.92 -10.246,16.01 h -0.317 c 0.161,-1.45 0.641,-7.53 0.641,-14.25 v -60.99 h -20.488 v 106.61"
         style="fill:#0088a7;fill-opacity:1;fill-rule:nonzero;stroke:none"
         transform="matrix(0.13333333,0,0,-0.13333333,0,240.21333)" />
      <path
         id="path31"
         d="m 298.281,1242.16 h 22.571 v -106.61 h -22.571 v 106.61"
         style="fill:#0088a7;fill-opacity:1;fill-rule:nonzero;stroke:none"
         transform="matrix(0.13333333,0,0,-0.13333333,0,240.21333)" />
      <path
         id="path32"
         d="m 362.578,1242.16 h 24.332 l 22.406,-63.87 c 2.879,-8.16 4.965,-15.84 5.446,-17.77 h 0.316 c 0.645,1.93 2.883,9.77 5.445,17.77 l 21.606,63.87 h 22.73 l -39.691,-106.61 h -21.453 l -41.137,106.61"
         style="fill:#0088a7;fill-opacity:1;fill-rule:nonzero;stroke:none"
         transform="matrix(0.13333333,0,0,-0.13333333,0,240.21333)" />
      <path
         id="path33"
         d="m 505.43,1242.16 h 61.465 v -18.57 h -39.219 v -24.01 h 34.574 v -17.6 h -34.574 v -27.85 h 40.336 v -18.58 H 505.43 v 106.61"
         style="fill:#0088a7;fill-opacity:1;fill-rule:nonzero;stroke:none"
         transform="matrix(0.13333333,0,0,-0.13333333,0,240.21333)" />
      <path
         id="path34"
         d="m 649.121,1195.42 c 12.008,0 17.609,5.44 17.609,14.72 0,9.77 -5.601,14.73 -18.57,14.73 h -11.363 v -29.45 z m -34.891,46.74 h 35.532 c 24.968,0 39.375,-10.73 39.375,-30.73 0,-17.45 -11.84,-26.25 -24.813,-28.66 v -0.32 c 2.883,-2.07 6.727,-6.24 12.489,-15.2 l 20.808,-31.7 h -24.808 l -19.532,30.41 c -8.32,12.33 -10.082,13.45 -15.043,13.45 h -1.441 v -43.86 H 614.23 v 106.61"
         style="fill:#0088a7;fill-opacity:1;fill-rule:nonzero;stroke:none"
         transform="matrix(0.13333333,0,0,-0.13333333,0,240.21333)" />
      <path
         id="path35"
         d="m 729.105,1144.2 9.606,15.69 c 2.402,-1.77 10.566,-8.01 22.891,-8.01 10.722,0 16.968,5.44 16.968,12.33 0,9.44 -11.367,12.16 -23.851,18.4 -13.125,6.41 -22.887,14.57 -22.887,31.85 0,18.25 15.359,29.62 34.406,29.62 17.453,0 26.735,-5.61 31.219,-8.97 l -9.129,-15.84 c -3.68,2.4 -11.683,6.56 -20.805,6.56 -8.64,0 -14.246,-3.84 -14.246,-11.04 0,-8.33 8.485,-11.05 19.688,-16.17 14.086,-6.4 27.371,-13.61 27.371,-33.3 0,-19.36 -14.563,-31.68 -38.258,-31.68 -17.281,0 -28.328,6.72 -32.973,10.56"
         style="fill:#0088a7;fill-opacity:1;fill-rule:nonzero;stroke:none"
         transform="matrix(0.13333333,0,0,-0.13333333,0,240.21333)" />
      <path
         id="path36"
         d="m 848.699,1242.16 h 22.571 v -106.61 h -22.571 v 106.61"
         style="fill:#0088a7;fill-opacity:1;fill-rule:nonzero;stroke:none"
         transform="matrix(0.13333333,0,0,-0.13333333,0,240.21333)" />
      <path
         id="path37"
         d="M 942.613,1223.59 H 913.16 v 18.57 h 81.473 v -18.57 h -29.289 v -88.04 h -22.731 v 88.04"
         style="fill:#0088a7;fill-opacity:1;fill-rule:nonzero;stroke:none"
         transform="matrix(0.13333333,0,0,-0.13333333,0,240.21333)" />
      <path
         id="path38"
         d="m 1061.17,1175.73 -35.37,66.43 h 25.12 l 22.57,-45.3 h 0.16 l 22.41,45.3 h 21.93 l -34.25,-66.43 v -40.18 h -22.57 v 40.18"
         style="fill:#0088a7;fill-opacity:1;fill-rule:nonzero;stroke:none"
         transform="matrix(0.13333333,0,0,-0.13333333,0,240.21333)" />
      <path
         id="path39"
         d="m 98.4141,961.82 c 0,19.848 -9.2813,37.137 -30.5703,37.137 -21.4532,0 -31.5352,-16.648 -31.5352,-36.492 0,-20.012 9.7617,-37.457 31.0508,-37.457 21.4492,0 31.0547,16.969 31.0547,36.812 z m -86.1133,0 c 0,28.973 19.3633,55.38 55.0586,55.38 35.6996,0 54.9026,-26.091 54.9026,-54.735 0,-28.977 -18.727,-55.703 -54.4182,-55.703 -35.6993,0 -55.543,26.25 -55.543,55.058"
         style="fill:#0088a7;fill-opacity:1;fill-rule:nonzero;stroke:none"
         transform="matrix(0.13333333,0,0,-0.13333333,0,240.21333)" />
      <path
         id="path40"
         d="m 166.383,1015.28 h 61.14 v -18.565 h -38.574 v -26.094 h 33.938 V 953.016 H 188.949 V 908.68 h -22.566 v 106.6"
         style="fill:#0088a7;fill-opacity:1;fill-rule:nonzero;stroke:none"
         transform="matrix(0.13333333,0,0,-0.13333333,0,240.21333)" />
      <path
         id="path41"
         d="m 335.613,961.516 c 0,28.968 19.051,55.064 55.063,55.064 13.926,0 23.687,-3.04 32.015,-8.49 l -10.089,-16.481 c -5.922,3.844 -12.485,6.239 -22.247,6.239 -20.007,0 -30.73,-16.004 -30.73,-35.692 0,-20.328 10.242,-37.133 31.051,-37.133 11.527,0 18.566,3.997 24.168,8.165 l 9.289,-15.852 c -5.445,-4.961 -18.25,-11.199 -33.778,-11.199 -36.335,0 -54.742,26.41 -54.742,55.379"
         style="fill:#0088a7;fill-opacity:1;fill-rule:nonzero;stroke:none"
         transform="matrix(0.13333333,0,0,-0.13333333,0,240.21333)" />
      <path
         id="path42"
         d="m 522.633,946.773 -9.125,25.45 c -3.36,9.129 -4.801,16.007 -5.766,18.41 h -0.32 c -0.801,-2.563 -2.559,-9.766 -5.602,-18.41 l -9.121,-25.45 z m -25.293,68.507 h 21.765 l 41.778,-106.6 h -24.649 l -7.203,20.008 h -42.578 l -7.039,-20.008 h -22.73 l 40.656,106.6"
         style="fill:#0088a7;fill-opacity:1;fill-rule:nonzero;stroke:none"
         transform="matrix(0.13333333,0,0,-0.13333333,0,240.21333)" />
      <path
         id="path43"
         d="m 599.438,1015.91 h 22.73 v -88.359 h 39.695 v -18.246 h -62.425 v 106.605"
         style="fill:#0088a7;fill-opacity:1;fill-rule:nonzero;stroke:none"
         transform="matrix(0.13333333,0,0,-0.13333333,0,240.21333)" />
      <path
         id="path44"
         d="m 707.566,1016.53 h 22.571 v -106.6 h -22.571 v 106.6"
         style="fill:#0088a7;fill-opacity:1;fill-rule:nonzero;stroke:none"
         transform="matrix(0.13333333,0,0,-0.13333333,0,240.21333)" />
      <path
         id="path45"
         d="m 786.82,1015.28 h 61.145 v -18.565 h -38.574 v -26.094 h 33.933 V 953.016 H 809.391 V 908.68 H 786.82 v 106.6"
         style="fill:#0088a7;fill-opacity:1;fill-rule:nonzero;stroke:none"
         transform="matrix(0.13333333,0,0,-0.13333333,0,240.21333)" />
      <path
         id="path46"
         d="m 973.832,961.195 c 0,19.848 -9.281,37.137 -30.57,37.137 -21.449,0 -31.532,-16.648 -31.532,-36.492 0,-20.012 9.758,-37.457 31.047,-37.457 21.453,0 31.055,16.969 31.055,36.812 z m -86.113,0 c 0,28.973 19.367,55.385 55.058,55.385 35.7,0 54.903,-26.096 54.903,-54.74 0,-28.977 -18.727,-55.703 -54.418,-55.703 -35.699,0 -55.543,26.25 -55.543,55.058"
         style="fill:#0088a7;fill-opacity:1;fill-rule:nonzero;stroke:none"
         transform="matrix(0.13333333,0,0,-0.13333333,0,240.21333)" />
      <path
         id="path47"
         d="m 1076.69,969.168 c 12.01,0 17.61,5.445 17.61,14.727 0,9.765 -5.6,14.726 -18.57,14.726 h -11.36 v -29.453 z m -34.89,46.742 h 35.53 c 24.97,0 39.38,-10.73 39.38,-30.734 0,-17.449 -11.84,-26.25 -24.81,-28.656 v -0.317 c 2.88,-2.078 6.72,-6.242 12.48,-15.203 l 20.82,-31.695 h -24.81 l -19.54,30.41 c -8.32,12.328 -10.08,13.445 -15.04,13.445 h -1.44 v -43.855 h -22.57 v 106.605"
         style="fill:#0088a7;fill-opacity:1;fill-rule:nonzero;stroke:none"
         transform="matrix(0.13333333,0,0,-0.13333333,0,240.21333)" />
      <path
         id="path48"
         d="m 1161.71,1014.66 h 22.73 l 38.42,-55.222 c 6.4,-9.129 10.24,-16.168 11.2,-17.93 h 0.32 c -0.16,1.437 -0.63,8.64 -0.63,16.805 v 56.347 h 20.48 V 908.055 h -20.65 l -41.46,59.222 c -5.76,8.004 -8.96,13.926 -10.24,16.008 h -0.32 c 0.16,-1.441 0.64,-7.527 0.64,-14.242 v -60.988 h -20.49 v 106.605"
         style="fill:#0088a7;fill-opacity:1;fill-rule:nonzero;stroke:none"
         transform="matrix(0.13333333,0,0,-0.13333333,0,240.21333)" />
      <path
         id="path49"
         d="m 1306.81,1015.28 h 22.57 v -106.6 h -22.57 v 106.6"
         style="fill:#0088a7;fill-opacity:1;fill-rule:nonzero;stroke:none"
         transform="matrix(0.13333333,0,0,-0.13333333,0,240.21333)" />
      <path
         id="path50"
         d="m 1439.87,946.773 -9.13,25.45 c -3.36,9.129 -4.8,16.007 -5.76,18.41 h -0.32 c -0.8,-2.563 -2.56,-9.766 -5.6,-18.41 l -9.12,-25.45 z m -25.29,68.507 h 21.76 l 41.78,-106.6 h -24.65 l -7.2,20.008 h -42.58 l -7.04,-20.008 h -22.73 l 40.66,106.6"
         style="fill:#0088a7;fill-opacity:1;fill-rule:nonzero;stroke:none"
         transform="matrix(0.13333333,0,0,-0.13333333,0,240.21333)" />
      <path
         id="path51"
         d="M 642.613,1794.58 H 826.16 V 1747.3 H 698.953 v -89.5 h 112.121 v -45.22 H 698.953 V 1506.96 H 829.68 v -47.25 H 642.613 v 334.87"
         style="fill:#0088a7;fill-opacity:1;fill-rule:nonzero;stroke:none"
         transform="matrix(0.13333333,0,0,-0.13333333,0,240.21333)" />
      <path
         id="path52"
         d="m 1088.86,1577.87 -34.67,95.55 c -10.06,28.13 -15.09,46.24 -19.11,57.81 h -1.02 c -3.51,-12.08 -9.05,-31.68 -18.59,-57.81 l -35.22,-95.55 z m -79.95,216.71 h 54.84 l 130.19,-334.87 h -61.85 l -26.11,71.9 H 963.66 l -25.617,-71.9 h -56.844 l 127.711,334.87"
         style="fill:#0088a7;fill-opacity:1;fill-rule:nonzero;stroke:none"
         transform="matrix(0.13333333,0,0,-0.13333333,0,240.21333)" />
      <path
         id="path53"
         d="m 1337.55,1630.66 c 50.78,-0.01 72.38,20.64 72.38,60.85 0,36.19 -20.11,58.32 -70.86,58.32 h -36.72 v -119.17 z m -92.01,163.92 h 98.06 c 70.38,0 123.65,-33.21 123.65,-101.56 0,-69.9 -49.24,-107.11 -130.21,-107.11 h -34.69 v -126.2 h -56.81 v 334.87"
         style="fill:#0088a7;fill-opacity:1;fill-rule:nonzero;stroke:none"
         transform="matrix(0.13333333,0,0,-0.13333333,0,240.21333)" />
      <path
         id="path54"
         d="m 12.1836,1583.93 v 209.68 h 39.2031 v -204.65 c 0,-69.4 28.6172,-102.58 91.5043,-102.58 60.332,0 88.988,39.23 88.988,95.53 v 211.7 h 36.719 v -207.68 c 0,-81.97 -39.684,-133.23 -126.723,-133.23 -91.4805,0 -129.6914,52.78 -129.6914,131.23"
         style="fill:#0088a7;fill-opacity:1;fill-rule:nonzero;stroke:none"
         transform="matrix(0.13333333,0,0,-0.13333333,0,240.21333)" />
      <path
         id="path55"
         d="m 321.508,1629.13 c 0,90.52 60.832,172.46 163.879,172.46 42.754,0 69.41,-9.54 94.031,-25.14 l -19.613,-29.66 c -19.614,13.57 -43.735,22.11 -75.41,22.11 -80.485,0 -121.7,-66.36 -121.7,-138.77 0,-73.41 39.746,-142.29 123.207,-142.29 36.231,0 62.34,12.06 81.953,28.66 l 18.125,-28.15 c -17.605,-16.08 -54.316,-33.69 -101.097,-33.69 -104.547,0 -163.375,83.96 -163.375,174.47"
         style="fill:#0088a7;fill-opacity:1;fill-rule:nonzero;stroke:none"
         transform="matrix(0.13333333,0,0,-0.13333333,0,240.21333)" />
      <path
         id="path56"
         d="M 17.1289,774.359 H 113.754 V 745.172 H 52.0938 v -37.75 H 106.453 V 679.738 H 52.0938 v -43.777 h 63.4022 v -29.18 H 17.1289 v 167.578"
         style="fill:#0088a7;fill-opacity:1;fill-rule:nonzero;stroke:none"
         transform="matrix(0.13333333,0,0,-0.13333333,0,240.21333)" />
      <path
         id="path57"
         d="m 215.922,635.211 c 37.746,0 56.894,19.367 56.894,56.609 0,37.489 -18.367,54.11 -58.148,54.11 H 199.316 V 635.211 Z m -52.07,139.148 h 50.578 c 65.922,0 95.875,-33.211 95.875,-81.531 0,-48.316 -30.461,-86.047 -97.137,-86.047 h -49.316 v 167.578"
         style="fill:#0088a7;fill-opacity:1;fill-rule:nonzero;stroke:none"
         transform="matrix(0.13333333,0,0,-0.13333333,0,240.21333)" />
      <path
         id="path58"
         d="m 348.48,671.691 v 102.668 h 35.485 v -99.648 c 0,-28.68 10.308,-41.77 36.75,-41.77 24.898,0 35.207,15.098 35.207,39.508 v 101.91 h 32.73 v -99.398 c 0,-45.789 -22.906,-71.211 -68.687,-71.211 -48.586,0 -71.485,24.16 -71.485,67.941"
         style="fill:#0088a7;fill-opacity:1;fill-rule:nonzero;stroke:none"
         transform="matrix(0.13333333,0,0,-0.13333333,0,240.21333)" />
      <path
         id="path59"
         d="m 528.086,690.82 c 0,45.539 29.961,86.571 86.566,86.571 21.907,0 37.258,-4.789 50.364,-13.34 l -15.86,-25.922 c -9.316,6.031 -19.625,9.82 -35.015,9.82 -31.453,0 -48.305,-25.168 -48.305,-56.129 0,-31.961 16.102,-58.371 48.816,-58.371 18.161,0 29.203,6.281 38.008,12.832 l 14.602,-24.922 c -8.555,-7.8 -28.688,-17.609 -53.121,-17.609 -57.114,0 -86.055,41.531 -86.055,87.07"
         style="fill:#0088a7;fill-opacity:1;fill-rule:nonzero;stroke:none"
         transform="matrix(0.13333333,0,0,-0.13333333,0,240.21333)" />
      <path
         id="path60"
         d="m 791.543,666.66 -14.371,40.02 c -5.281,14.332 -7.531,25.16 -9.031,28.929 h -0.512 c -1.274,-4.031 -4.024,-15.347 -8.805,-28.929 l -14.367,-40.02 z m -39.785,107.699 h 34.226 l 65.68,-167.578 h -38.766 l -11.289,31.449 h -66.945 l -11.09,-31.449 h -35.738 l 63.922,167.578"
         style="fill:#0088a7;fill-opacity:1;fill-rule:nonzero;stroke:none"
         transform="matrix(0.13333333,0,0,-0.13333333,0,240.21333)" />
      <path
         id="path61"
         d="m 903.695,745.172 h -46.297 v 29.187 H 985.52 V 745.172 H 939.465 V 606.781 h -35.77 v 138.391"
         style="fill:#0088a7;fill-opacity:1;fill-rule:nonzero;stroke:none"
         transform="matrix(0.13333333,0,0,-0.13333333,0,240.21333)" />
      <path
         id="path62"
         d="m 1026.45,774.359 h 35.48 V 606.781 h -35.48 v 167.578"
         style="fill:#0088a7;fill-opacity:1;fill-rule:nonzero;stroke:none"
         transform="matrix(0.13333333,0,0,-0.13333333,0,240.21333)" />
      <path
         id="path63"
         d="m 1241.86,690.32 c 0,31.2 -14.61,58.371 -48.11,58.371 -33.72,0 -49.56,-26.171 -49.56,-57.371 0,-31.461 15.34,-58.879 48.79,-58.879 33.75,0 48.88,26.668 48.88,57.879 z m -135.43,0 c 0,45.551 30.47,87.071 86.55,87.071 56.15,0 86.34,-41.032 86.34,-86.071 0,-45.55 -29.42,-87.57 -85.57,-87.57 -56.09,0 -87.32,41.27 -87.32,86.57"
         style="fill:#0088a7;fill-opacity:1;fill-rule:nonzero;stroke:none"
         transform="matrix(0.13333333,0,0,-0.13333333,0,240.21333)" />
      <path
         id="path64"
         d="m 1325.79,774.359 h 35.75 l 60.39,-86.808 c 10.07,-14.352 16.1,-25.422 17.6,-28.18 h 0.53 c -0.28,2.258 -1.04,13.578 -1.04,26.41 v 88.578 h 32.23 V 606.781 h -32.47 l -65.15,93.098 c -9.09,12.582 -14.1,21.902 -16.12,25.16 H 1357 c 0.24,-2.258 0.99,-11.828 0.99,-22.391 v -95.867 h -32.2 v 167.578"
         style="fill:#0088a7;fill-opacity:1;fill-rule:nonzero;stroke:none"
         transform="matrix(0.13333333,0,0,-0.13333333,0,240.21333)" />
      <path
         id="path65"
         d="m 103.691,364.789 -14.3707,40 c -5.2851,14.352 -7.5312,25.16 -9.0312,28.949 h -0.5196 c -1.2617,-4.027 -4.0156,-15.347 -8.7968,-28.949 l -14.3594,-40 z M 63.9023,472.488 h 34.2266 l 65.7231,-167.59 h -38.801 l -11.297,31.454 H 46.8125 L 35.7227,304.898 H 0 l 63.9023,167.59"
         style="fill:#0088a7;fill-opacity:1;fill-rule:nonzero;stroke:none"
         transform="matrix(0.13333333,0,0,-0.13333333,0,240.21333)" />
      <path
         id="path66"
         d="m 251.852,332.07 c 20.394,0 31.211,6.289 31.211,22.399 0,15.609 -9.079,23.66 -29.711,23.66 H 233.219 V 332.07 Z m -2.262,71.469 c 19.109,0 27.437,6.801 27.437,21.641 0,13.84 -9.078,20.129 -26.683,20.129 h -17.125 v -41.77 z m -51.348,68.949 h 55.891 c 30.93,0 57.859,-10.066 57.859,-41.769 0,-21.649 -11.578,-33.719 -29.683,-38.5 v -0.508 c 19.847,-3.02 36.711,-16.352 36.711,-40.27 0,-34.222 -27.434,-46.543 -65.668,-46.543 h -55.11 v 167.59"
         style="fill:#0088a7;fill-opacity:1;fill-rule:nonzero;stroke:none"
         transform="matrix(0.13333333,0,0,-0.13333333,0,240.21333)" />
      <path
         id="path67"
         d="m 414.586,399.012 c 18.871,0 27.703,8.558 27.703,23.148 0,15.352 -8.832,23.149 -29.203,23.149 h -17.875 v -46.297 z m -54.828,73.476 h 55.855 c 39.231,0 61.899,-16.847 61.899,-48.316 0,-27.434 -18.633,-41.262 -39.012,-45.043 v -0.5 c 4.547,-3.27 10.582,-9.82 19.625,-23.91 l 32.73,-49.821 h -39.007 l -30.703,47.813 c -13.075,19.379 -15.868,21.141 -23.657,21.141 h -2.277 v -68.954 h -35.453 v 167.59"
         style="fill:#0088a7;fill-opacity:1;fill-rule:nonzero;stroke:none"
         transform="matrix(0.13333333,0,0,-0.13333333,0,240.21333)" />
      <path
         id="path68"
         d="m 647.328,388.441 c 0,31.207 -14.57,58.379 -48.082,58.379 -33.711,0 -49.578,-26.172 -49.578,-57.371 0,-31.449 15.352,-58.89 48.832,-58.89 33.742,0 48.828,26.679 48.828,57.882 z m -135.39,0 c 0,45.547 30.441,87.071 86.562,87.071 56.129,0 86.328,-41.024 86.328,-86.063 0,-45.551 -29.445,-87.57 -85.582,-87.57 -56.086,0 -87.308,41.269 -87.308,86.562"
         style="fill:#0088a7;fill-opacity:1;fill-rule:nonzero;stroke:none"
         transform="matrix(0.13333333,0,0,-0.13333333,0,240.21333)" />
      <path
         id="path69"
         d="m 808.074,364.789 -14.324,40 c -5.297,14.352 -7.578,25.16 -9.086,28.949 h -0.504 c -1.226,-4.027 -4.031,-15.347 -8.812,-28.949 l -14.317,-40 z M 768.32,472.488 h 34.231 l 65.676,-167.59 h -38.762 l -11.32,31.454 h -66.95 l -11.047,-31.454 h -35.722 l 63.894,167.59"
         style="fill:#0088a7;fill-opacity:1;fill-rule:nonzero;stroke:none"
         transform="matrix(0.13333333,0,0,-0.13333333,0,240.21333)" />
      <path
         id="path70"
         d="m 954.727,333.328 c 37.773,0 56.883,19.383 56.883,56.621 0,37.5 -18.364,54.102 -58.118,54.102 H 938.141 V 333.328 Z m -52.098,139.16 h 50.598 c 65.923,0 95.883,-33.218 95.883,-81.527 0,-48.32 -30.44,-86.063 -97.145,-86.063 h -49.336 v 167.59"
         style="fill:#0088a7;fill-opacity:1;fill-rule:nonzero;stroke:none"
         transform="matrix(0.13333333,0,0,-0.13333333,0,240.21333)" />
      <path
         id="path71"
         d="m 68.207,89.5781 c 22.3907,0 31.93,9.0625 31.93,27.6839 0,16.847 -9.305,26.168 -31.18,26.168 H 52.3398 V 89.5781 Z M 16.6172,170.609 h 55.1016 c 36.4802,0 64.1832,-16.859 64.1832,-52.847 0,-36.4807 -26.449,-55.1136 -68.2106,-55.1136 H 52.3398 V 3.01953 H 16.6172 V 170.609"
         style="fill:#0088a7;fill-opacity:1;fill-rule:nonzero;stroke:none"
         transform="matrix(0.13333333,0,0,-0.13333333,0,240.21333)" />
      <path
         id="path72"
         d="m 230.727,97.1289 c 18.863,0 27.668,8.5621 27.668,23.1521 0,15.348 -8.805,23.149 -29.165,23.149 H 211.344 V 97.1289 Z m -54.868,73.4801 h 55.86 c 39.273,0 61.914,-16.859 61.914,-48.32 0,-27.4296 -18.621,-41.2695 -39.028,-45.039 v -0.5117 c 4.536,-3.2695 10.571,-9.8086 19.653,-23.8985 L 306.938,3.01953 H 267.949 L 237.27,50.8203 c -13.106,19.3906 -15.86,21.1485 -23.676,21.1485 h -2.25 V 3.01953 H 175.859 V 170.609"
         style="fill:#0088a7;fill-opacity:1;fill-rule:nonzero;stroke:none"
         transform="matrix(0.13333333,0,0,-0.13333333,0,240.21333)" />
      <path
         id="path73"
         d="m 463.414,86.5586 c 0,31.2034 -14.562,58.3824 -48.043,58.3824 -33.738,0 -49.578,-26.171 -49.578,-57.3707 0,-31.4492 15.352,-58.8906 48.832,-58.8906 33.711,0 48.789,26.6797 48.789,57.8789 z m -135.351,0 c 0,45.5434 30.437,87.0704 86.562,87.0704 56.098,0 86.297,-41.02 86.297,-86.0587 C 500.922,42.0195 471.477,0 415.371,0 359.254,0 328.063,41.2695 328.063,86.5586"
         style="fill:#0088a7;fill-opacity:1;fill-rule:nonzero;stroke:none"
         transform="matrix(0.13333333,0,0,-0.13333333,0,240.21333)" />
      <path
         id="path74"
         d="m 532.578,87.0586 c 0,45.5504 33.195,86.5704 91.34,86.5704 25.184,0 42.043,-5.539 55.105,-15.109 l -15.835,-26.418 c -10.333,7.558 -22.657,12.078 -40.02,12.078 -35.758,0 -52.852,-24.16 -52.852,-56.1097 0,-32.2109 15.352,-59.1289 50.563,-59.1289 13.617,0 23.922,2.7578 29.723,6.5274 v 33.2226 h -30.977 v 27.4297 h 64.961 V 16.1016 C 672.75,8.03906 653.363,0 621.16,0 563.52,0 532.578,41.7695 532.578,87.0586"
         style="fill:#0088a7;fill-opacity:1;fill-rule:nonzero;stroke:none"
         transform="matrix(0.13333333,0,0,-0.13333333,0,240.21333)" />
      <path
         id="path75"
         d="m 786.172,97.1289 c 18.867,0 27.707,8.5621 27.707,23.1521 0,15.348 -8.84,23.149 -29.215,23.149 H 766.793 V 97.1289 Z m -54.832,73.4801 55.855,-0.007 c 39.243,0 61.891,-16.852 61.891,-48.313 0,-27.4296 -18.633,-41.2695 -38.992,-45.039 v -0.5117 c 4.535,-3.2695 10.582,-9.8086 19.613,-23.8985 L 862.438,3.01953 H 823.43 L 792.727,50.8203 c -13.063,19.3906 -15.872,21.1485 -23.645,21.1485 h -2.289 V 3.01953 H 731.34 V 170.609"
         style="fill:#0088a7;fill-opacity:1;fill-rule:nonzero;stroke:none"
         transform="matrix(0.13333333,0,0,-0.13333333,0,240.21333)" />
      <path
         id="path76"
         d="M 983.93,62.9102 969.605,102.91 c -5.289,14.352 -7.574,25.16 -9.074,28.942 h -0.515 c -1.227,-4.032 -4.036,-15.34 -8.801,-28.942 L 936.887,62.9102 Z M 944.184,170.602 h 34.218 L 1044.08,3.01953 h -38.75 L 994,34.4688 H 927.063 L 916.008,3.01953 h -35.77 L 944.184,170.602"
         style="fill:#0088a7;fill-opacity:1;fill-rule:nonzero;stroke:none"
         transform="matrix(0.13333333,0,0,-0.13333333,0,240.21333)" />
      <path
         id="path77"
         d="m 1091.07,170.602 h 34.47 l 33.74,-103.4106 c 4.04,-12.082 7.03,-24.1601 8.53,-28.9531 h 0.51 c 1.27,4.543 4.78,16.8711 8.8,28.9531 l 34.78,103.4106 h 34.21 L 1269.26,3.01953 H 1233 l -10.81,86.55857 c -1.5,12.3199 -2.51,21.1409 -2.76,24.4019 h -0.5 c -0.75,-3.769 -3.29,-12.832 -6.81,-23.9019 L 1183.68,3.01953 h -34.97 l -28.44,86.80857 c -3.26,10.5699 -5.79,20.6409 -6.82,24.1519 h -0.47 c -0.28,-3.769 -1.03,-13.582 -2.28,-24.6519 L 1099.88,3.01953 h -31.94 l 23.13,167.58247"
         style="fill:#0088a7;fill-opacity:1;fill-rule:nonzero;stroke:none"
         transform="matrix(0.13333333,0,0,-0.13333333,0,240.21333)" />
      <path
         id="path78"
         d="m 16.1875,1176.85 v 65.31 h 22.5664 v -63.39 c 0,-18.25 6.5625,-26.57 23.3711,-26.57 15.8438,0 22.4063,9.6 22.4063,25.13 v 64.83 h 20.8127 v -63.23 c 0,-29.13 -14.5667,-45.29 -43.6995,-45.29 -30.8906,0 -45.457,15.36 -45.457,43.21"
         style="fill:#0088a7;fill-opacity:1;fill-rule:nonzero;stroke:none"
         transform="matrix(0.13333333,0,0,-0.13333333,0,240.21333)" />
      <path
         id="path79"
         d="m 151.305,1242.16 h 22.726 l 38.414,-55.22 c 6.407,-9.13 10.246,-16.17 11.207,-17.93 h 0.325 c -0.164,1.44 -0.641,8.64 -0.641,16.8 v 56.35 h 20.488 v -106.61 h -20.648 l -41.461,59.23 c -5.762,8 -8.961,13.92 -10.246,16.01 h -0.317 c 0.161,-1.45 0.641,-7.53 0.641,-14.25 v -60.99 h -20.488 v 106.61"
         style="fill:#0088a7;fill-opacity:1;fill-rule:nonzero;stroke:none"
         transform="matrix(0.13333333,0,0,-0.13333333,0,240.21333)" />
      <path
         id="path80"
         d="m 298.281,1242.16 h 22.571 v -106.61 h -22.571 v 106.61"
         style="fill:#0088a7;fill-opacity:1;fill-rule:nonzero;stroke:none"
         transform="matrix(0.13333333,0,0,-0.13333333,0,240.21333)" />
      <path
         id="path81"
         d="m 362.578,1242.16 h 24.332 l 22.406,-63.87 c 2.879,-8.16 4.965,-15.84 5.446,-17.77 h 0.316 c 0.645,1.93 2.883,9.77 5.445,17.77 l 21.606,63.87 h 22.73 l -39.691,-106.61 h -21.453 l -41.137,106.61"
         style="fill:#0088a7;fill-opacity:1;fill-rule:nonzero;stroke:none"
         transform="matrix(0.13333333,0,0,-0.13333333,0,240.21333)" />
      <path
         id="path82"
         d="m 505.43,1242.16 h 61.465 v -18.57 h -39.219 v -24.01 h 34.574 v -17.6 h -34.574 v -27.85 h 40.336 v -18.58 H 505.43 v 106.61"
         style="fill:#0088a7;fill-opacity:1;fill-rule:nonzero;stroke:none"
         transform="matrix(0.13333333,0,0,-0.13333333,0,240.21333)" />
      <path
         id="path83"
         d="m 649.121,1195.42 c 12.008,0 17.609,5.44 17.609,14.72 0,9.77 -5.601,14.73 -18.57,14.73 h -11.363 v -29.45 z m -34.891,46.74 h 35.532 c 24.968,0 39.375,-10.73 39.375,-30.73 0,-17.45 -11.84,-26.25 -24.813,-28.66 v -0.32 c 2.883,-2.07 6.727,-6.24 12.489,-15.2 l 20.808,-31.7 h -24.808 l -19.532,30.41 c -8.32,12.33 -10.082,13.45 -15.043,13.45 h -1.441 v -43.86 H 614.23 v 106.61"
         style="fill:#0088a7;fill-opacity:1;fill-rule:nonzero;stroke:none"
         transform="matrix(0.13333333,0,0,-0.13333333,0,240.21333)" />
      <path
         id="path84"
         d="m 729.105,1144.2 9.606,15.69 c 2.402,-1.77 10.566,-8.01 22.891,-8.01 10.722,0 16.968,5.44 16.968,12.33 0,9.44 -11.367,12.16 -23.851,18.4 -13.125,6.41 -22.887,14.57 -22.887,31.85 0,18.25 15.359,29.62 34.406,29.62 17.453,0 26.735,-5.61 31.219,-8.97 l -9.129,-15.84 c -3.68,2.4 -11.683,6.56 -20.805,6.56 -8.64,0 -14.246,-3.84 -14.246,-11.04 0,-8.33 8.485,-11.05 19.688,-16.17 14.086,-6.4 27.371,-13.61 27.371,-33.3 0,-19.36 -14.563,-31.68 -38.258,-31.68 -17.281,0 -28.328,6.72 -32.973,10.56"
         style="fill:#0088a7;fill-opacity:1;fill-rule:nonzero;stroke:none"
         transform="matrix(0.13333333,0,0,-0.13333333,0,240.21333)" />
      <path
         id="path85"
         d="m 848.699,1242.16 h 22.571 v -106.61 h -22.571 v 106.61"
         style="fill:#0088a7;fill-opacity:1;fill-rule:nonzero;stroke:none"
         transform="matrix(0.13333333,0,0,-0.13333333,0,240.21333)" />
      <path
         id="path86"
         d="M 942.613,1223.59 H 913.16 v 18.57 h 81.473 v -18.57 h -29.289 v -88.04 h -22.731 v 88.04"
         style="fill:#0088a7;fill-opacity:1;fill-rule:nonzero;stroke:none"
         transform="matrix(0.13333333,0,0,-0.13333333,0,240.21333)" />
      <path
         id="path87"
         d="m 1061.17,1175.73 -35.37,66.43 h 25.12 l 22.57,-45.3 h 0.16 l 22.41,45.3 h 21.93 l -34.25,-66.43 v -40.18 h -22.57 v 40.18"
         style="fill:#0088a7;fill-opacity:1;fill-rule:nonzero;stroke:none"
         transform="matrix(0.13333333,0,0,-0.13333333,0,240.21333)" />
      <path
         id="path88"
         d="m 98.4141,961.82 c 0,19.848 -9.2813,37.137 -30.5703,37.137 -21.4532,0 -31.5352,-16.648 -31.5352,-36.492 0,-20.012 9.7617,-37.457 31.0508,-37.457 21.4492,0 31.0547,16.969 31.0547,36.812 z m -86.1133,0 c 0,28.973 19.3633,55.38 55.0586,55.38 35.6996,0 54.9026,-26.091 54.9026,-54.735 0,-28.977 -18.727,-55.703 -54.4182,-55.703 -35.6993,0 -55.543,26.25 -55.543,55.058"
         style="fill:#0088a7;fill-opacity:1;fill-rule:nonzero;stroke:none"
         transform="matrix(0.13333333,0,0,-0.13333333,0,240.21333)" />
      <path
         id="path89"
         d="m 166.383,1015.28 h 61.14 v -18.565 h -38.574 v -26.094 h 33.938 V 953.016 H 188.949 V 908.68 h -22.566 v 106.6"
         style="fill:#0088a7;fill-opacity:1;fill-rule:nonzero;stroke:none"
         transform="matrix(0.13333333,0,0,-0.13333333,0,240.21333)" />
      <path
         id="path90"
         d="m 335.613,961.516 c 0,28.968 19.051,55.064 55.063,55.064 13.926,0 23.687,-3.04 32.015,-8.49 l -10.089,-16.481 c -5.922,3.844 -12.485,6.239 -22.247,6.239 -20.007,0 -30.73,-16.004 -30.73,-35.692 0,-20.328 10.242,-37.133 31.051,-37.133 11.527,0 18.566,3.997 24.168,8.165 l 9.289,-15.852 c -5.445,-4.961 -18.25,-11.199 -33.778,-11.199 -36.335,0 -54.742,26.41 -54.742,55.379"
         style="fill:#0088a7;fill-opacity:1;fill-rule:nonzero;stroke:none"
         transform="matrix(0.13333333,0,0,-0.13333333,0,240.21333)" />
      <path
         id="path91"
         d="m 522.633,946.773 -9.125,25.45 c -3.36,9.129 -4.801,16.007 -5.766,18.41 h -0.32 c -0.801,-2.563 -2.559,-9.766 -5.602,-18.41 l -9.121,-25.45 z m -25.293,68.507 h 21.765 l 41.778,-106.6 h -24.649 l -7.203,20.008 h -42.578 l -7.039,-20.008 h -22.73 l 40.656,106.6"
         style="fill:#0088a7;fill-opacity:1;fill-rule:nonzero;stroke:none"
         transform="matrix(0.13333333,0,0,-0.13333333,0,240.21333)" />
      <path
         id="path92"
         d="m 599.438,1015.91 h 22.73 v -88.359 h 39.695 v -18.246 h -62.425 v 106.605"
         style="fill:#0088a7;fill-opacity:1;fill-rule:nonzero;stroke:none"
         transform="matrix(0.13333333,0,0,-0.13333333,0,240.21333)" />
      <path
         id="path93"
         d="m 707.566,1016.53 h 22.571 v -106.6 h -22.571 v 106.6"
         style="fill:#0088a7;fill-opacity:1;fill-rule:nonzero;stroke:none"
         transform="matrix(0.13333333,0,0,-0.13333333,0,240.21333)" />
      <path
         id="path94"
         d="m 786.82,1015.28 h 61.145 v -18.565 h -38.574 v -26.094 h 33.933 V 953.016 H 809.391 V 908.68 H 786.82 v 106.6"
         style="fill:#0088a7;fill-opacity:1;fill-rule:nonzero;stroke:none"
         transform="matrix(0.13333333,0,0,-0.13333333,0,240.21333)" />
      <path
         id="path95"
         d="m 973.832,961.195 c 0,19.848 -9.281,37.137 -30.57,37.137 -21.449,0 -31.532,-16.648 -31.532,-36.492 0,-20.012 9.758,-37.457 31.047,-37.457 21.453,0 31.055,16.969 31.055,36.812 z m -86.113,0 c 0,28.973 19.367,55.385 55.058,55.385 35.7,0 54.903,-26.096 54.903,-54.74 0,-28.977 -18.727,-55.703 -54.418,-55.703 -35.699,0 -55.543,26.25 -55.543,55.058"
         style="fill:#0088a7;fill-opacity:1;fill-rule:nonzero;stroke:none"
         transform="matrix(0.13333333,0,0,-0.13333333,0,240.21333)" />
      <path
         id="path96"
         d="m 1076.69,969.168 c 12.01,0 17.61,5.445 17.61,14.727 0,9.765 -5.6,14.726 -18.57,14.726 h -11.36 v -29.453 z m -34.89,46.742 h 35.53 c 24.97,0 39.38,-10.73 39.38,-30.734 0,-17.449 -11.84,-26.25 -24.81,-28.656 v -0.317 c 2.88,-2.078 6.72,-6.242 12.48,-15.203 l 20.82,-31.695 h -24.81 l -19.54,30.41 c -8.32,12.328 -10.08,13.445 -15.04,13.445 h -1.44 v -43.855 h -22.57 v 106.605"
         style="fill:#0088a7;fill-opacity:1;fill-rule:nonzero;stroke:none"
         transform="matrix(0.13333333,0,0,-0.13333333,0,240.21333)" />
      <path
         id="path97"
         d="m 1161.71,1014.66 h 22.73 l 38.42,-55.222 c 6.4,-9.129 10.24,-16.168 11.2,-17.93 h 0.32 c -0.16,1.437 -0.63,8.64 -0.63,16.805 v 56.347 h 20.48 V 908.055 h -20.65 l -41.46,59.222 c -5.76,8.004 -8.96,13.926 -10.24,16.008 h -0.32 c 0.16,-1.441 0.64,-7.527 0.64,-14.242 v -60.988 h -20.49 v 106.605"
         style="fill:#0088a7;fill-opacity:1;fill-rule:nonzero;stroke:none"
         transform="matrix(0.13333333,0,0,-0.13333333,0,240.21333)" />
      <path
         id="path98"
         d="m 1306.81,1015.28 h 22.57 v -106.6 h -22.57 v 106.6"
         style="fill:#0088a7;fill-opacity:1;fill-rule:nonzero;stroke:none"
         transform="matrix(0.13333333,0,0,-0.13333333,0,240.21333)" />
      <path
         id="path99"
         d="m 1439.87,946.773 -9.13,25.45 c -3.36,9.129 -4.8,16.007 -5.76,18.41 h -0.32 c -0.8,-2.563 -2.56,-9.766 -5.6,-18.41 l -9.12,-25.45 z m -25.29,68.507 h 21.76 l 41.78,-106.6 h -24.65 l -7.2,20.008 h -42.58 l -7.04,-20.008 h -22.73 l 40.66,106.6"
         style="fill:#0088a7;fill-opacity:1;fill-rule:nonzero;stroke:none"
         transform="matrix(0.13333333,0,0,-0.13333333,0,240.21333)" />
    </g>
  </g>
</svg>
