<?xml version="1.0" encoding="UTF-8" standalone="no"?>
<!-- Created with Inkscape (http://www.inkscape.org/) -->

<svg
   version="1.1"
   id="svg1"
   width="187.38667"
   height="44.933334"
   viewBox="0 0 187.38667 44.933334"
   sodipodi:docname="UCEAP Abbreviated Logo Dark Teal.eps"
   xmlns:inkscape="http://www.inkscape.org/namespaces/inkscape"
   xmlns:sodipodi="http://sodipodi.sourceforge.net/DTD/sodipodi-0.dtd"
   xmlns="http://www.w3.org/2000/svg"
   xmlns:svg="http://www.w3.org/2000/svg">
  <defs
     id="defs1" />
  <sodipodi:namedview
     id="namedview1"
     pagecolor="#ffffff"
     bordercolor="#000000"
     borderopacity="0.25"
     inkscape:showpageshadow="2"
     inkscape:pageopacity="0.0"
     inkscape:pagecheckerboard="0"
     inkscape:deskcolor="#d1d1d1">
    <inkscape:page
       x="0"
       y="0"
       inkscape:label="1"
       id="page1"
       width="187.38667"
       height="44.933334"
       margin="0"
       bleed="0" />
  </sodipodi:namedview>
  <g
     id="g1"
     inkscape:groupmode="layer"
     inkscape:label="1">
    <g
       id="group-R5">
      <path
         id="path2"
         d="m 608.867,330.211 h 177.285 v -45.66 H 663.301 V 198.109 H 771.602 V 154.434 H 663.301 V 52.418 h 126.25 V 6.79297 H 608.867 V 330.211"
         style="fill:#0088a7;fill-opacity:1;fill-rule:nonzero;stroke:none"
         transform="matrix(0.13333333,0,0,-0.13333333,0,44.933333)" />
      <path
         id="path3"
         d="m 1039.88,120.93 -33.49,92.254 c -9.691,27.164 -14.515,44.652 -18.441,55.843 h -0.996 c -3.359,-11.66 -8.672,-30.593 -17.93,-55.843 L 934.98,120.93 Z m -77.204,209.281 h 53.004 L 1141.41,6.79297 h -59.75 L 1056.45,76.2266 H 918.965 L 894.219,6.79297 H 839.316 L 962.676,330.211"
         style="fill:#0088a7;fill-opacity:1;fill-rule:nonzero;stroke:none"
         transform="matrix(0.13333333,0,0,-0.13333333,0,44.933333)" />
      <path
         id="path4"
         d="m 1280.1,171.906 c 49.06,-0.011 69.9,19.914 69.9,58.758 0,34.973 -19.43,56.324 -68.44,56.324 h -35.49 V 171.906 Z m -88.85,158.305 h 94.73 c 67.97,0 119.39,-32.086 119.39,-98.082 0,-67.508 -47.56,-103.465 -125.76,-103.465 h -33.54 V 6.79297 h -54.82 V 330.211"
         style="fill:#0088a7;fill-opacity:1;fill-rule:nonzero;stroke:none"
         transform="matrix(0.13333333,0,0,-0.13333333,0,44.933333)" />
      <path
         id="path5"
         d="M 0,126.758 V 329.289 H 37.8438 V 131.637 c 0,-67.0511 27.6523,-99.0979 88.3862,-99.0979 58.282,0 85.938,37.9023 85.938,92.2889 v 204.449 h 35.469 V 128.695 C 247.637,49.5273 209.316,0 125.234,0 36.9063,0 0,51.0039 0,126.758"
         style="fill:#0088a7;fill-opacity:1;fill-rule:nonzero;stroke:none"
         transform="matrix(0.13333333,0,0,-0.13333333,0,44.933333)" />
      <path
         id="path6"
         d="m 298.75,170.445 c 0,87.391 58.77,166.547 158.301,166.547 41.269,0 67.031,-9.207 90.781,-24.277 l -18.926,-28.656 c -18.984,13.101 -42.246,21.375 -72.832,21.375 -77.734,0 -117.558,-64.094 -117.558,-134.055 0,-70.879 38.418,-137.4063 119.023,-137.4063 34.981,0 60.234,11.6367 79.141,27.6601 L 554.16,34.4531 C 537.188,18.9102 501.738,1.91406 456.523,1.91406 355.586,1.91406 298.75,83 298.75,170.445"
         style="fill:#0088a7;fill-opacity:1;fill-rule:nonzero;stroke:none"
         transform="matrix(0.13333333,0,0,-0.13333333,0,44.933333)" />
    </g>
  </g>
</svg>
